<svg width="46" height="47" viewBox="0 0 46 47" fill="none" xmlns="http://www.w3.org/2000/svg">
<g clip-path="url(#clip0_24083_64)">
<path d="M36.4731 23.3475C36.3704 23.3154 36.2716 23.3072 36.1759 23.3231C35.9699 23.3571 35.8016 23.4662 35.6697 23.6508L34.4019 25.4206C34.2835 25.5867 34.241 25.7723 34.275 25.9781L35.2718 32.0054C35.4446 33.0498 35.2214 34.0046 34.6003 34.8715C33.9798 35.738 33.1472 36.2577 32.103 36.4304L12.3587 39.6958C11.3144 39.8686 10.3589 39.6446 9.49244 39.0241C8.62575 38.4032 8.10636 37.5712 7.93362 36.5268L4.66822 16.7829C4.49554 15.7387 4.71933 14.7834 5.33999 13.9167C5.96051 13.0501 6.79299 12.5306 7.8373 12.3578L27.5818 9.09235C27.9299 9.03478 28.2937 9.02338 28.6732 9.05821C28.7734 9.07392 28.8472 9.07819 28.8941 9.07044C29.1001 9.03637 29.269 8.92739 29.401 8.74307L30.3715 7.38791C30.5298 7.16694 30.5633 6.92555 30.471 6.66474C30.3817 6.41941 30.209 6.26095 29.9534 6.18957C29.0343 5.93579 28.0755 5.89053 27.0788 6.05537L7.335 9.32076C5.45235 9.63212 3.95304 10.5668 2.83726 12.1248C1.72166 13.6829 1.31943 15.4031 1.63081 17.2858L4.89628 37.0302C5.20761 38.9126 6.14229 40.4118 7.7002 41.5276C9.25826 42.6438 10.9787 43.0459 12.8613 42.7346L32.6056 39.4691C34.488 39.1578 35.9875 38.2231 37.1032 36.6647C38.2191 35.1067 38.6219 33.3864 38.3105 31.5039L37.0623 23.9569C37.0073 23.625 36.8104 23.422 36.4731 23.3475Z" fill="#333333"/>
<path d="M40.1772 8.74065L37.1347 6.56173C36.6922 6.24492 36.2097 6.1297 35.6874 6.21607C35.1659 6.30233 34.7458 6.56685 34.4292 7.00919L21.6143 24.9028L14.3411 19.6936C13.8985 19.3766 13.4161 19.2616 12.8942 19.3479C12.3722 19.4342 11.9527 19.6984 11.6357 20.1411L9.45706 23.1832C9.14017 23.6256 9.02475 24.1081 9.11112 24.6303C9.19745 25.1523 9.46203 25.5717 9.90454 25.8888L21.7965 34.4054C22.2391 34.7225 22.7215 34.8375 23.2434 34.7511C23.7653 34.6648 24.1849 34.4008 24.5019 33.958L40.6244 11.446C40.941 11.0036 41.0567 10.5211 40.9703 9.99907C40.884 9.47708 40.6197 9.05746 40.1772 8.74065Z" fill="#333333"/>
</g>
<defs>
<clipPath id="clip0_24083_64">
<rect width="40.0012" height="40.0012" fill="white" transform="translate(0 7.42548) rotate(-9.391)"/>
</clipPath>
</defs>
</svg>
